# xmcd
#
# Track frame offsets: 
#        150
#        14820
#        28373
#        42338
#        54563
#        68138
#        80288
#        93376
#        105639
#        118007
#        131425
#        145645
#        158380
#        171738
#
# Disc length: 2449 seconds
#
# Revision: 2
# Processed by: cddbd v1.5.2PL0 Copyright (c) Steve Scherf et al.
# Submitted via: ExactAudioCopyFreeDBPlugin 1.0
#
DISCID=be098f0e
DTITLE=B.B. King - The Many Faces Of B.B. King [CD3 The Blues Hall Of 
DTITLE=Fame)
DYEAR=2018
DGENRE=Blues
TTITLE0=King's Shuffle
TTITLE1=Harpo, Slim - I'm A King Bee
TTITLE2=Howlin' Wolf - Smokestack Lightnin'
TTITLE3=Memphis Slim - Mother Earth
TTITLE4=King, Albert - Bad Luck Blues
TTITLE5=Muddy Waters - I Can't Be Satisfied
TTITLE6=Crudup, Arthur 'Big Boy' - That's All Right
TTITLE7=James, Elmore - The Sky Is Crying
TTITLE8=Little Walter - Juke
TTITLE9=Johnson, Robert - Sweet Home Chicago
TTITLE10=Hooker, John Lee - Boogie Chillen
TTITLE11=Lightnin’ Hopkins - T-Model Blues
TTITLE12=Mississippi John Hurt - Stack O'Lee Blues
TTITLE13=Sunny Boy Williamson - Don't Me Talking
EXTD=
EXTT0=
EXTT1=
EXTT2=
EXTT3=
EXTT4=
EXTT5=
EXTT6=
EXTT7=
EXTT8=
EXTT9=
EXTT10=
EXTT11=
EXTT12=
EXTT13=
PLAYORDER=
